# xmcd CD database file
#
# Track frame offsets:
#	150
#	16672
#	30320
#	58085
#
# Disc length: 1158 seconds
#
# Revision: 0
# Processed by: cddbd v1.5.1PL0 Copyright (c) Steve Scherf et al.
# Submitted via: CDex 1.51
#
DISCID=22048404
DTITLE=Zwei - ワタシ飼いの唄
DYEAR=2004
DGENRE=JPop
TTITLE0=ワタシ飼いの唄
TTITLE1=Pretty Queen
TTITLE2=ワタシ飼いの唄　instrumental
TTITLE3=extra data track
EXTD=YEAR: 2004
EXTT0=
EXTT1=
EXTT2=
EXTT3=
PLAYORDER=
